<?xml version="1.0" encoding="UTF-8"?>
<svg version="1.1" xmlns="http://www.w3.org/2000/svg" width="497" height="502">
<path d="M0 0 C2.65208788 0.01073127 5.30349871 0.00002913 7.95556641 -0.01269531 C18.52586505 -0.02178033 28.70416261 0.64200004 39.15478516 2.26074219 C40.13833984 2.40672852 41.12189453 2.55271484 42.13525391 2.703125 C55.50550666 4.77464094 68.33847329 7.94821333 81.15478516 12.26074219 C82.06292969 12.5652832 82.97107422 12.86982422 83.90673828 13.18359375 C99.48647849 18.4755373 113.90510117 25.02759144 128.15478516 33.26074219 C128.15478516 33.92074219 128.15478516 34.58074219 128.15478516 35.26074219 C128.87666016 35.34324219 129.59853516 35.42574219 130.34228516 35.51074219 C133.76519544 36.42351826 135.44173678 37.99986854 138.15478516 40.26074219 C139.84594647 41.20388985 141.53716139 42.14694202 143.22900391 43.08886719 C146.15931024 44.87201506 148.78951026 46.9816164 151.46728516 49.12011719 C153.57661666 50.80022426 155.70050606 52.45090782 157.84228516 54.08886719 C159.13396991 55.08363537 160.42563657 56.07842704 161.71728516 57.07324219 C162.34965088 57.55349854 162.9820166 58.03375488 163.63354492 58.52856445 C165.17778056 59.7261913 166.67147802 60.9884318 168.15478516 62.26074219 C168.15478516 62.92074219 168.15478516 63.58074219 168.15478516 64.26074219 C169.03553711 64.65362427 169.03553711 64.65362427 169.93408203 65.05444336 C172.27437754 66.32570547 173.81401765 67.67628986 175.68603516 69.56152344 C176.33185547 70.20927734 176.97767578 70.85703125 177.64306641 71.52441406 C178.63886719 72.53858398 178.63886719 72.53858398 179.65478516 73.57324219 C180.31865234 74.23775391 180.98251953 74.90226562 181.66650391 75.58691406 C191.15478516 85.1604194 191.15478516 85.1604194 191.15478516 88.26074219 C191.81478516 88.26074219 192.47478516 88.26074219 193.15478516 88.26074219 C193.15478516 88.92074219 193.15478516 89.58074219 193.15478516 90.26074219 C193.81478516 90.26074219 194.47478516 90.26074219 195.15478516 90.26074219 C196.78369141 92.20996094 196.78369141 92.20996094 198.71728516 94.94824219 C199.78462891 96.45644531 199.78462891 96.45644531 200.87353516 97.99511719 C202.00275391 99.61160156 202.00275391 99.61160156 203.15478516 101.26074219 C203.90759766 102.31777344 204.66041016 103.37480469 205.43603516 104.46386719 C210.41073867 111.51704271 214.95731331 118.71472538 219.15478516 126.26074219 C219.77998047 127.35386719 220.40517578 128.44699219 221.04931641 129.57324219 C225.29837922 137.14270883 228.83978338 144.92638391 232.15478516 152.94824219 C232.55294434 153.90520996 232.95110352 154.86217773 233.36132812 155.84814453 C233.72629395 156.75129395 234.09125977 157.65444336 234.46728516 158.58496094 C234.79341797 159.39022217 235.11955078 160.1954834 235.45556641 161.02514648 C236.15478516 163.26074219 236.15478516 163.26074219 236.15478516 167.26074219 C230.4948047 167.31009145 224.8349488 167.34643748 219.17480469 167.37060547 C217.24835021 167.38067801 215.32191108 167.39433662 213.39550781 167.41162109 C210.63033264 167.4358146 207.86535916 167.44721255 205.10009766 167.45605469 C204.23546906 167.46637726 203.37084045 167.47669983 202.48001099 167.48733521 C200.37024995 167.48773325 198.26097797 167.38339462 196.15478516 167.26074219 C194.01163472 165.11759175 193.57772816 163.94449278 192.59228516 161.13574219 C190.36710292 155.31275572 187.31902879 150.05756376 184.15258789 144.70751953 C181.15478516 139.5678928 181.15478516 139.5678928 181.15478516 136.26074219 C180.49478516 136.26074219 179.83478516 136.26074219 179.15478516 136.26074219 C177.55436622 134.01894553 176.06238368 131.77352886 174.59228516 129.44824219 C170.18341303 122.64215675 165.40286921 116.44817203 160.15478516 110.26074219 C159.45095703 109.35582031 158.74712891 108.45089844 158.02197266 107.51855469 C156.35403783 105.19192825 156.35403783 105.19192825 154.15478516 104.26074219 C154.15478516 103.60074219 154.15478516 102.94074219 154.15478516 102.26074219 C153.49478516 102.26074219 152.83478516 102.26074219 152.15478516 102.26074219 C149.52978516 99.88574219 149.52978516 99.88574219 147.15478516 97.26074219 C147.15478516 96.60074219 147.15478516 95.94074219 147.15478516 95.26074219 C146.49478516 95.26074219 145.83478516 95.26074219 145.15478516 95.26074219 C145.15478516 94.60074219 145.15478516 93.94074219 145.15478516 93.26074219 C144.56439453 92.99261719 143.97400391 92.72449219 143.36572266 92.44824219 C141.13482513 91.25002161 139.61781458 89.99065223 137.77978516 88.26074219 C132.4994786 83.52530779 126.70282221 79.54299229 120.89746094 75.48730469 C119.09240425 74.2168361 117.30569668 72.9227694 115.51806641 71.62792969 C95.33910329 57.21478503 70.12937828 48.72406003 46.15478516 43.26074219 C45.30722656 43.06174316 44.45966797 42.86274414 43.58642578 42.65771484 C6.40811315 34.24505367 -41.07878987 36.65685097 -75.39599609 54.08496094 C-77.84521484 55.26074219 -77.84521484 55.26074219 -81.56005859 56.61230469 C-86.27513745 58.35013389 -90.66188488 60.59399422 -95.09521484 62.94824219 C-95.92569336 63.38740967 -96.75617188 63.82657715 -97.61181641 64.27905273 C-105.8367871 68.6909909 -113.42841467 73.76600206 -120.97021484 79.26074219 C-123.84521484 81.26074219 -123.84521484 81.26074219 -125.84521484 81.26074219 C-126.34021484 82.74574219 -126.34021484 82.74574219 -126.84521484 84.26074219 C-128.50369662 85.27425883 -130.17187445 86.27195014 -131.84521484 87.26074219 C-133.53518807 88.90377172 -135.19737878 90.57545531 -136.84521484 92.26074219 C-139.16666928 94.32380865 -141.50674182 96.36330499 -143.85693359 98.39355469 C-146.03109893 100.29386542 -146.03109893 100.29386542 -147.84521484 103.26074219 C-148.50521484 103.26074219 -149.16521484 103.26074219 -149.84521484 103.26074219 C-150.09400391 103.83179687 -150.34279297 104.40285156 -150.59912109 104.99121094 C-152.03218953 107.60128229 -153.72589856 109.41972206 -155.78271484 111.57324219 C-175.83325957 133.63843494 -188.29838418 160.31879877 -197.84521484 188.26074219 C-187.61521484 188.26074219 -177.38521484 188.26074219 -166.84521484 188.26074219 C-165.85521484 184.96074219 -164.86521484 181.66074219 -163.84521484 178.26074219 C-162.5465175 175.40617972 -161.23664693 172.65333833 -159.78271484 169.88574219 C-159.43144531 169.20125 -159.08017578 168.51675781 -158.71826172 167.81152344 C-157.76643244 165.95824526 -156.80621143 164.10928338 -155.84521484 162.26074219 C-155.17518967 160.9290934 -154.50639459 159.5968049 -153.84521484 158.26074219 C-153.18521484 158.26074219 -152.52521484 158.26074219 -151.84521484 158.26074219 C-151.76787109 157.56722656 -151.69052734 156.87371094 -151.61083984 156.15917969 C-150.64968865 152.52053589 -148.77907396 149.88136328 -146.59521484 146.88574219 C-146.18843506 146.31573486 -145.78165527 145.74572754 -145.36254883 145.15844727 C-144.19428812 143.52288227 -143.01990271 141.89169723 -141.84521484 140.26074219 C-140.86590936 138.82333676 -139.88670688 137.38586112 -138.90771484 135.94824219 C-138.22708984 135.06136719 -137.54646484 134.17449219 -136.84521484 133.26074219 C-136.18521484 133.26074219 -135.52521484 133.26074219 -134.84521484 133.26074219 C-134.61833984 132.53886719 -134.39146484 131.81699219 -134.15771484 131.07324219 C-132.55257961 127.63366669 -130.62418881 125.85847872 -127.84521484 123.26074219 C-126.63664488 122.01097097 -125.42833486 120.76094836 -124.22021484 119.51074219 C-119.40861638 114.69914372 -114.15449218 110.5051855 -108.84521484 106.26074219 C-108.01892578 105.56722656 -107.19263672 104.87371094 -106.34130859 104.15917969 C-101.14079212 99.83515476 -95.8028848 96.28598076 -89.90380859 92.97949219 C-87.89507137 91.85069988 -85.90668683 90.68474115 -83.94287109 89.47949219 C-76.23304772 84.76045936 -68.29534575 81.35803599 -59.84521484 78.26074219 C-58.67345703 77.81730469 -57.50169922 77.37386719 -56.29443359 76.91699219 C-11.33134728 60.79907709 38.20849694 65.63599246 81.15478516 85.26074219 C86.93408569 88.06028288 92.57541918 91.08349664 98.15478516 94.26074219 C98.15478516 94.92074219 98.15478516 95.58074219 98.15478516 96.26074219 C98.70908203 96.35355469 99.26337891 96.44636719 99.83447266 96.54199219 C107.82727951 99.01787849 114.85991485 106.59862197 120.86572266 112.18261719 C123.17987649 114.34088816 123.17987649 114.34088816 125.94384766 116.40136719 C126.67345703 117.01496094 127.40306641 117.62855469 128.15478516 118.26074219 C128.15478516 118.92074219 128.15478516 119.58074219 128.15478516 120.26074219 C128.73228516 120.48761719 129.30978516 120.71449219 129.90478516 120.94824219 C132.75069897 122.60835858 134.15320436 124.65262176 136.15478516 127.26074219 C137.29947266 128.37449219 137.29947266 128.37449219 138.46728516 129.51074219 C148.14755038 139.41612986 148.14755038 139.41612986 149.15478516 145.26074219 C149.81478516 145.26074219 150.47478516 145.26074219 151.15478516 145.26074219 C163.556675 162.42381732 176.09268236 187.83629754 178.15478516 209.26074219 C177.15478516 210.26074219 177.15478516 210.26074219 174.60484314 210.3809967 C172.90274437 210.37766579 172.90274437 210.37766579 171.16625977 210.37426758 C169.88500717 210.37419205 168.60375458 210.37411652 167.28367615 210.3740387 C165.87482668 210.36893128 164.4659776 210.36371527 163.05712891 210.35839844 C161.62366281 210.35653421 160.19019608 210.35511033 158.75672913 210.35411072 C154.97718559 210.35028591 151.19768026 210.34045595 147.41815186 210.32940674 C143.56409217 210.31919182 139.71002634 210.31461293 135.85595703 210.30957031 C128.28888229 210.29883364 120.72183907 210.28175768 113.15478516 210.26074219 C113.15478516 208.94074219 113.15478516 207.62074219 113.15478516 206.26074219 C115.19204805 204.71314782 117.06387979 203.49394169 119.27978516 202.26074219 C123.67477941 199.70945301 127.95664601 197.11904969 132.15478516 194.26074219 C128.52749587 183.78190648 123.57087973 174.39549393 117.05078125 165.44946289 C114.15478516 161.45085138 114.15478516 161.45085138 114.15478516 159.26074219 C113.16478516 158.93074219 112.17478516 158.60074219 111.15478516 158.26074219 C109.96728516 155.69824219 109.96728516 155.69824219 109.15478516 153.26074219 C108.49478516 153.26074219 107.83478516 153.26074219 107.15478516 153.26074219 C107.15478516 152.60074219 107.15478516 151.94074219 107.15478516 151.26074219 C106.49478516 151.26074219 105.83478516 151.26074219 105.15478516 151.26074219 C105.15478516 150.60074219 105.15478516 149.94074219 105.15478516 149.26074219 C104.49478516 149.26074219 103.83478516 149.26074219 103.15478516 149.26074219 C103.15478516 148.60074219 103.15478516 147.94074219 103.15478516 147.26074219 C102.49478516 147.26074219 101.83478516 147.26074219 101.15478516 147.26074219 C101.15478516 146.60074219 101.15478516 145.94074219 101.15478516 145.26074219 C99.83478516 144.60074219 98.51478516 143.94074219 97.15478516 143.26074219 C97.15478516 142.60074219 97.15478516 141.94074219 97.15478516 141.26074219 C95.83478516 140.93074219 94.51478516 140.60074219 93.15478516 140.26074219 C93.15478516 139.60074219 93.15478516 138.94074219 93.15478516 138.26074219 C92.49478516 138.26074219 91.83478516 138.26074219 91.15478516 138.26074219 C91.15478516 137.60074219 91.15478516 136.94074219 91.15478516 136.26074219 C90.41744141 135.99390625 89.68009766 135.72707031 88.92041016 135.45214844 C86.20733353 134.28337955 84.24691047 132.98011091 81.90478516 131.19824219 C52.6358713 110.35391184 15.73647445 102.73872385 -19.62255859 108.18261719 C-25.44904667 109.24280172 -31.15303682 110.63224293 -36.84521484 112.26074219 C-37.63412109 112.48536133 -38.42302734 112.70998047 -39.23583984 112.94140625 C-56.08279318 117.93013769 -70.98262919 126.60285509 -84.84521484 137.26074219 C-85.85326172 138.03289062 -86.86130859 138.80503906 -87.89990234 139.60058594 C-92.50267545 142.88466148 -92.50267545 142.88466148 -95.84521484 147.26074219 C-96.50521484 147.26074219 -97.16521484 147.26074219 -97.84521484 147.26074219 C-97.84521484 147.92074219 -97.84521484 148.58074219 -97.84521484 149.26074219 C-98.50521484 149.26074219 -99.16521484 149.26074219 -99.84521484 149.26074219 C-99.84521484 149.92074219 -99.84521484 150.58074219 -99.84521484 151.26074219 C-100.50521484 151.26074219 -101.16521484 151.26074219 -101.84521484 151.26074219 C-101.84521484 151.92074219 -101.84521484 152.58074219 -101.84521484 153.26074219 C-102.50521484 153.26074219 -103.16521484 153.26074219 -103.84521484 153.26074219 C-104.23193359 154.10572266 -104.23193359 154.10572266 -104.62646484 154.96777344 C-105.98250741 157.51904584 -107.58787635 159.65433928 -109.34521484 161.94824219 C-122.11817097 179.40384285 -130.11663042 197.44213585 -134.89306641 218.50317383 C-135.1209082 219.49567139 -135.34875 220.48816895 -135.58349609 221.51074219 C-135.77983643 222.40277344 -135.97617676 223.29480469 -136.1784668 224.21386719 C-136.39849365 224.88933594 -136.61852051 225.56480469 -136.84521484 226.26074219 C-139.1412755 227.40877252 -140.42964746 227.38878926 -142.98254395 227.39445496 C-144.28231926 227.40085243 -144.28231926 227.40085243 -145.60835266 227.40737915 C-146.56114609 227.40692596 -147.51393951 227.40647278 -148.49560547 227.40600586 C-149.4973027 227.40936447 -150.49899994 227.41272308 -151.53105164 227.41618347 C-154.85453519 227.42571158 -158.17796847 227.42763741 -161.50146484 227.42871094 C-163.8031008 227.43192183 -166.10473655 227.43528577 -168.40637207 227.438797 C-173.23511224 227.44479265 -178.06383449 227.44663641 -182.89257812 227.44604492 C-189.09375896 227.44594318 -195.29482558 227.45960542 -201.49597931 227.47681713 C-206.25018852 227.48790963 -211.00436987 227.48996499 -215.7585907 227.4894352 C-218.04563288 227.49061909 -220.33267569 227.49506359 -222.6197052 227.50276756 C-225.81149411 227.51251362 -229.00303166 227.50971097 -232.19482422 227.50366211 C-233.14761765 227.50928162 -234.10041107 227.51490112 -235.08207703 227.52069092 C-235.9485939 227.51649643 -236.81511078 227.51230194 -237.70788574 227.50798035 C-238.46300194 227.50852511 -239.21811813 227.50906988 -239.99611664 227.50963116 C-241.84521484 227.26074219 -241.84521484 227.26074219 -243.84521484 225.26074219 C-243.82051217 222.19761056 -243.65232065 219.29995432 -243.34521484 216.26074219 C-243.25264404 215.33592041 -243.16007324 214.41109863 -243.06469727 213.45825195 C-240.91313448 194.42568227 -235.68579504 176.09639108 -228.84521484 158.26074219 C-228.346051 156.91456069 -227.84733216 155.56821408 -227.34912109 154.22167969 C-222.51512736 141.41110603 -215.92335061 129.69423405 -208.60693359 118.16308594 C-206.84687118 115.26347092 -205.31966492 112.31398804 -203.84521484 109.26074219 C-203.18521484 109.26074219 -202.52521484 109.26074219 -201.84521484 109.26074219 C-201.56677734 108.02324219 -201.56677734 108.02324219 -201.28271484 106.76074219 C-199.67254843 102.84033702 -197.67871938 100.5529415 -194.84130859 97.46777344 C-192.71601128 95.11788502 -190.74754745 92.6835103 -188.78271484 90.19824219 C-176.25686569 74.43211546 -176.25686569 74.43211546 -171.65771484 72.19824219 C-169.66629327 71.39372058 -169.66629327 71.39372058 -168.84521484 69.26074219 C-167.58712689 66.74456627 -166.31517515 66.45588427 -163.84521484 65.26074219 C-163.35021484 63.77574219 -163.35021484 63.77574219 -162.84521484 62.26074219 C-160.28271484 61.07324219 -160.28271484 61.07324219 -157.84521484 60.26074219 C-157.84521484 59.60074219 -157.84521484 58.94074219 -157.84521484 58.26074219 C-157.18521484 58.26074219 -156.52521484 58.26074219 -155.84521484 58.26074219 C-155.84521484 57.60074219 -155.84521484 56.94074219 -155.84521484 56.26074219 C-143.65309662 45.26074219 -143.65309662 45.26074219 -138.84521484 45.26074219 C-138.84521484 44.60074219 -138.84521484 43.94074219 -138.84521484 43.26074219 C-135.84521484 41.26074219 -135.84521484 41.26074219 -132.84521484 41.26074219 C-132.84521484 40.60074219 -132.84521484 39.94074219 -132.84521484 39.26074219 C-130.56406264 37.6855862 -128.30244628 36.27222253 -125.90771484 34.88574219 C-125.16134766 34.45165039 -124.41498047 34.01755859 -123.64599609 33.5703125 C-107.81883437 24.55265947 -91.28217196 16.59978357 -73.84521484 11.26074219 C-73.03665039 11.00599121 -72.22808594 10.75124023 -71.39501953 10.48876953 C-59.89599266 6.89071491 -48.48710547 4.12932261 -36.52832031 2.609375 C-34.49302231 2.3449159 -32.46128349 2.05288524 -30.43164062 1.74804688 C-20.2584215 0.30625396 -10.26879387 -0.04926899 0 0 Z " fill="#F5F5F5" transform="translate(250.84521484375,3.7392578125)"/>
<path d="M0 0 C0.77338431 0.00092179 1.54676863 0.00184359 2.34358883 0.00279331 C3.22844967 0.00141865 4.11331051 0.00004398 5.02498531 -0.00137234 C6.00321758 0.00222294 6.98144985 0.00581821 7.98932552 0.00952244 C9.01359646 0.00937641 10.03786739 0.00923038 11.09317684 0.00907993 C14.49665055 0.00977955 17.9000703 0.0175742 21.30353451 0.02539158 C23.65623094 0.02725559 26.00892776 0.02867957 28.36162472 0.0296793 C34.56769531 0.03350584 40.77374266 0.04333728 46.97980404 0.05438328 C53.30711204 0.06459448 59.63442378 0.06917629 65.96173763 0.0742197 C78.38687807 0.08495942 90.81200124 0.10203747 103.23712826 0.12304783 C103.71576594 1.53532532 104.19232582 2.94830709 104.66803646 4.36157322 C105.06645496 5.54173763 105.06645496 5.54173763 105.47292233 6.74574375 C106.39192981 9.60460697 107.13612467 12.48857966 107.87067318 15.39892673 C111.87101052 31.00888126 118.48478279 44.64116169 127.33087826 58.06054783 C129.23712826 61.12304783 129.23712826 61.12304783 129.23712826 63.12304783 C129.89712826 63.12304783 130.55712826 63.12304783 131.23712826 63.12304783 C132.35822201 64.45117283 132.35822201 64.45117283 133.67462826 66.37304783 C139.60860235 74.52682152 146.41893898 82.44568819 154.87384701 88.03711033 C155.32372982 88.3954697 155.77361263 88.75382908 156.23712826 89.12304783 C156.23712826 89.78304783 156.23712826 90.44304783 156.23712826 91.12304783 C156.89712826 91.12304783 157.55712826 91.12304783 158.23712826 91.12304783 C158.23712826 91.78304783 158.23712826 92.44304783 158.23712826 93.12304783 C158.82107357 93.23648533 159.40501888 93.34992283 160.00665951 93.46679783 C162.43748718 94.18199756 163.88382315 95.13280475 165.92462826 96.62304783 C197.37044308 117.94484422 234.96471874 124.2349099 272.01056576 117.44336033 C289.01920939 114.02060082 304.37802953 107.48611462 319.08087826 98.35742283 C321.23712826 97.12304783 321.23712826 97.12304783 323.23712826 97.12304783 C323.23712826 96.46304783 323.23712826 95.80304783 323.23712826 95.12304783 C325.10822201 93.67773533 325.10822201 93.67773533 327.67462826 91.99804783 C332.29632704 88.87527838 336.36659311 85.44585501 340.42462826 81.62695408 C342.23712826 80.12304783 342.23712826 80.12304783 344.23712826 80.12304783 C344.57937435 79.31673923 344.57937435 79.31673923 344.92853451 78.49414158 C346.6368183 75.39883333 348.87284626 72.84604909 351.17462826 70.18554783 C353.65603559 67.31405026 355.99787197 64.53028082 357.92853451 61.24414158 C358.57628841 60.19420017 358.57628841 60.19420017 359.23712826 59.12304783 C359.89712826 59.12304783 360.55712826 59.12304783 361.23712826 59.12304783 C361.60837826 57.82367283 361.60837826 57.82367283 361.98712826 56.49804783 C363.06154334 53.59712712 364.25766516 51.534217 366.01837826 49.03320408 C371.20335142 41.07883334 371.20335142 41.07883334 373.23712826 32.12304783 C371.82722937 30.82320519 371.82722937 30.82320519 369.91290951 29.74804783 C369.2135931 29.32007908 368.5142767 28.89211033 367.79376888 28.45117283 C367.05320248 28.01289158 366.31263607 27.57461033 365.54962826 27.12304783 C364.82839779 26.68476658 364.10716732 26.24648533 363.36408138 25.79492283 C361.32796863 24.56023893 359.28409538 23.33962671 357.23712826 22.12304783 C355.74246029 21.22586033 355.74246029 21.22586033 354.21759701 20.31054783 C353.23726498 19.72273533 353.23726498 19.72273533 352.23712826 19.12304783 C352.56712826 18.46304783 352.89712826 17.80304783 353.23712826 17.12304783 C374.68712826 17.12304783 396.13712826 17.12304783 418.23712826 17.12304783 C420.65491169 21.95861468 416.24076153 31.05728468 414.56720638 36.16943455 C411.59951211 44.83081421 407.98597226 53.02109683 403.75275326 61.13476658 C402.42081189 63.76088809 401.2785877 66.37134863 400.23712826 69.12304783 C399.57712826 69.12304783 398.91712826 69.12304783 398.23712826 69.12304783 C398.14044857 69.68250095 398.04376888 70.24195408 397.94415951 70.81836033 C397.07022112 73.66710976 395.67583848 75.59060251 393.92462826 77.99804783 C391.99113423 80.67759713 390.11407666 83.31993039 388.36212826 86.12304783 C385.72718724 89.84296455 382.73869998 93.12204973 379.65900326 96.47851658 C378.0884026 98.19351117 376.5350598 99.92453507 375.00275326 101.67382908 C364.29081312 113.88620054 352.06094377 123.49618244 338.37384701 132.10742283 C335.32693294 133.98254864 335.32693294 133.98254864 333.06915951 135.88867283 C331.23712826 137.12304783 331.23712826 137.12304783 327.23712826 137.12304783 C327.23712826 137.78304783 327.23712826 138.44304783 327.23712826 139.12304783 C295.71187155 155.46947723 258.54722475 162.56406157 223.23712826 158.12304783 C221.99261898 157.96691013 221.99261898 157.96691013 220.7229681 157.80761814 C205.24022967 155.73733263 190.86194932 151.5367823 176.23712826 146.12304783 C175.02154232 145.67832127 173.80595638 145.2335947 172.55353451 144.77539158 C164.6811966 141.69127513 157.48141486 137.44175715 150.23712826 133.12304783 C150.23712826 132.46304783 150.23712826 131.80304783 150.23712826 131.12304783 C149.51138607 131.01863377 148.78564388 130.9142197 148.03790951 130.80664158 C144.97728634 130.05962756 143.02241348 128.94756135 140.42462826 127.18554783 C139.63443295 126.66089939 138.84423763 126.13625095 138.03009701 125.59570408 C137.43841732 125.10972752 136.84673763 124.62375095 136.23712826 124.12304783 C136.23712826 123.46304783 136.23712826 122.80304783 136.23712826 122.12304783 C135.72150326 121.89617283 135.20587826 121.66929783 134.67462826 121.43554783 C131.34165821 119.64087165 128.09009154 117.62339768 125.23712826 115.12304783 C125.23712826 114.46304783 125.23712826 113.80304783 125.23712826 113.12304783 C124.64287045 112.84332127 124.04861263 112.5635947 123.43634701 112.27539158 C116.57774618 108.68163093 111.97625135 102.58176461 107.25275326 96.61132908 C105.37454253 94.17431985 105.37454253 94.17431985 103.47150326 92.47851658 C102.23712826 91.12304783 102.23712826 91.12304783 102.23712826 88.12304783 C101.57712826 88.12304783 100.91712826 88.12304783 100.23712826 88.12304783 C98.89300387 86.34275063 97.63676007 84.49571036 96.42462826 82.62304783 C95.71693295 81.53121189 95.00923763 80.43937595 94.28009701 79.31445408 C93.26882748 77.73470798 93.26882748 77.73470798 92.23712826 76.12304783 C91.69701107 75.30707127 91.15689388 74.4910947 90.60040951 73.65039158 C87.23712826 68.49464525 87.23712826 68.49464525 87.23712826 65.12304783 C86.57712826 65.12304783 85.91712826 65.12304783 85.23712826 65.12304783 C83.9335444 62.48253263 82.64431487 59.83643538 81.36212826 57.18554783 C80.81492123 56.08243259 80.81492123 56.08243259 80.25665951 54.9570322 C79.90216732 54.21904392 79.54767513 53.48105564 79.18244076 52.72070408 C78.85775814 52.0556284 78.53307552 51.39055271 78.19855404 50.70532322 C76.80812854 46.97080558 76.10158742 43.01311408 75.23712826 39.12304783 C65.00712826 39.12304783 54.77712826 39.12304783 44.23712826 39.12304783 C48.88904155 54.62942547 54.41465759 68.0158026 62.23712826 82.12304783 C62.87134701 83.2754697 63.50556576 84.42789158 64.15900326 85.61523533 C68.50137127 93.28409626 73.49783326 100.40681991 78.97150326 107.31054783 C80.23712826 109.12304783 80.23712826 109.12304783 80.23712826 111.12304783 C81.72212826 111.61804783 81.72212826 111.61804783 83.23712826 112.12304783 C84.42462826 114.68554783 84.42462826 114.68554783 85.23712826 117.12304783 C85.89712826 117.12304783 86.55712826 117.12304783 87.23712826 117.12304783 C87.23712826 117.78304783 87.23712826 118.44304783 87.23712826 119.12304783 C87.89712826 119.12304783 88.55712826 119.12304783 89.23712826 119.12304783 C90.78790951 120.73242283 90.78790951 120.73242283 92.54962826 122.87304783 C95.22475061 126.04066132 97.97638512 128.55397748 101.23712826 131.12304783 C101.23712826 131.78304783 101.23712826 132.44304783 101.23712826 133.12304783 C101.89712826 133.12304783 102.55712826 133.12304783 103.23712826 133.12304783 C103.23712826 133.78304783 103.23712826 134.44304783 103.23712826 135.12304783 C103.81849545 135.38086033 104.39986263 135.63867283 104.99884701 135.90429783 C107.42472132 137.22519274 109.06174692 138.70966303 111.04962826 140.62304783 C126.36554364 154.5236311 146.90361957 166.09038128 166.33478451 173.01757908 C169.23712826 174.12304783 169.23712826 174.12304783 172.00275326 175.57617283 C176.19929645 177.58321523 180.4463642 178.83175094 184.92462826 180.06054783 C185.86709408 180.31924656 186.8095599 180.57794529 187.78058529 180.84448338 C199.75561626 183.97580135 211.97853736 185.54698914 224.23712826 187.12304783 C224.96488461 187.22689793 225.69264095 187.33074802 226.44245052 187.43774509 C261.46781309 192.31714043 300.66053005 183.5662475 332.23712826 168.12304783 C333.48190892 167.53187882 334.72670145 166.94073481 335.97150326 166.34961033 C346.77149944 161.1523738 356.80067192 155.13066235 366.48712826 148.06054783 C369.23712826 146.12304783 369.23712826 146.12304783 371.23712826 146.12304783 C371.23712826 145.46304783 371.23712826 144.80304783 371.23712826 144.12304783 C372.88712826 143.46304783 374.53712826 142.80304783 376.23712826 142.12304783 C376.23712826 141.46304783 376.23712826 140.80304783 376.23712826 140.12304783 C377.81346211 138.73251758 379.45117741 137.41131995 381.11212826 136.12304783 C393.58964916 126.10903746 403.52214669 114.26691009 412.60822201 101.14257908 C413.4145306 100.14291111 413.4145306 100.14291111 414.23712826 99.12304783 C414.89712826 99.12304783 415.55712826 99.12304783 416.23712826 99.12304783 C416.38150326 98.50429783 416.52587826 97.88554783 416.67462826 97.24804783 C417.23712826 95.12304783 417.23712826 95.12304783 418.23712826 93.12304783 C418.89712826 93.12304783 419.55712826 93.12304783 420.23712826 93.12304783 C420.60837826 91.85461033 420.60837826 91.85461033 420.98712826 90.56054783 C422.37686453 86.73877309 424.14833663 83.6043672 426.23712826 80.12304783 C426.89712826 80.12304783 427.55712826 80.12304783 428.23712826 80.12304783 C428.56712826 78.47304783 428.89712826 76.82304783 429.23712826 75.12304783 C431.87712826 69.84304783 434.51712826 64.56304783 437.23712826 59.12304783 C450.43712826 59.12304783 463.63712826 59.12304783 477.23712826 59.12304783 C476.20092783 66.37645084 474.20531598 71.52953629 471.23712826 78.12304783 C470.9545013 78.76065037 470.67187435 79.39825291 470.38068295 80.05517673 C463.66776227 95.13561121 455.47168309 109.01600178 446.23712826 122.68554783 C445.67292171 123.52585545 445.10871517 124.36616306 444.52741146 125.23193455 C443.998493 126.00166599 443.46957455 126.77139744 442.92462826 127.56445408 C442.21886654 128.59614719 442.21886654 128.59614719 441.49884701 129.64868259 C441.08247982 130.13522312 440.66611263 130.62176365 440.23712826 131.12304783 C439.57712826 131.12304783 438.91712826 131.12304783 438.23712826 131.12304783 C438.23712826 131.78304783 438.23712826 132.44304783 438.23712826 133.12304783 C437.57712826 133.12304783 436.91712826 133.12304783 436.23712826 133.12304783 C436.17525326 133.65929783 436.11337826 134.19554783 436.04962826 134.74804783 C434.83677562 138.2933094 432.791019 140.38228703 430.23712826 143.12304783 C429.57712826 143.12304783 428.91712826 143.12304783 428.23712826 143.12304783 C427.975368 143.70932957 427.71360775 144.29561131 427.44391537 144.89965916 C426.16965634 147.24735831 424.80973948 148.80886672 422.92853451 150.69726658 C422.26934017 151.36048923 421.61014584 152.02371189 420.93097591 152.7070322 C420.22763119 153.40119236 419.52428646 154.09535252 418.79962826 154.81054783 C418.07823666 155.52662205 417.35684505 156.24269627 416.6135931 156.9804697 C411.08229349 162.41446968 405.37212299 167.37674958 399.23712826 172.12304783 C397.50665243 173.5172578 395.77746637 174.91307027 394.04962826 176.31054783 C392.44684339 177.58312345 390.84274622 178.85404861 389.23712826 180.12304783 C388.5139642 180.70441502 387.79080013 181.2857822 387.04572201 181.88476658 C383.23726008 184.86938665 380.02092461 186.92709874 375.23712826 188.12304783 C375.23712826 188.78304783 375.23712826 189.44304783 375.23712826 190.12304783 C366.3766202 195.07892522 357.35182665 199.65852746 348.23712826 204.12304783 C347.59694759 204.43951267 346.95676693 204.75597752 346.29718685 205.0820322 C334.39632901 210.94186105 322.36342264 215.32691247 309.40900326 218.34961033 C307.56082222 218.80027516 305.71729782 219.27323909 303.88971615 219.80127048 C296.7101391 221.86521193 289.56502748 223.18720978 282.17462826 224.24804783 C280.99376644 224.41981541 279.81290462 224.59158298 278.59625912 224.76855564 C269.13906559 226.09502249 259.78043136 226.90615458 250.23712826 227.12304783 C249.21619076 227.1514072 248.19525326 227.17976658 247.14337826 227.20898533 C244.16918141 227.24983968 241.21056596 227.20301804 238.23712826 227.12304783 C237.6038763 227.11047947 236.97062435 227.09791111 236.31818295 227.08496189 C216.9372513 226.64098543 197.25744606 224.29374335 178.78790951 218.27148533 C175.22138469 217.06906542 175.22138469 217.06906542 171.43634701 216.20117283 C156.68046556 212.60704262 142.55425212 206.31771334 129.23712826 199.12304783 C128.3695892 198.66027439 127.50205013 198.19750095 126.60822201 197.72070408 C121.05000505 194.69510076 115.6434295 191.41007899 110.23712826 188.12304783 C109.4417767 187.65382908 108.64642513 187.18461033 107.82697201 186.70117283 C107.09607357 186.26289158 106.36517513 185.82461033 105.61212826 185.37304783 C104.63372982 184.7929697 104.63372982 184.7929697 103.63556576 184.20117283 C102.9433392 183.66750095 102.9433392 183.66750095 102.23712826 183.12304783 C102.23712826 182.46304783 102.23712826 181.80304783 102.23712826 181.12304783 C101.41212826 180.93742283 100.58712826 180.75179783 99.73712826 180.56054783 C95.6703828 178.89027737 93.15709504 176.6511564 89.97150326 173.68164158 C88.30753628 172.04774821 88.30753628 172.04774821 86.23712826 171.12304783 C86.23712826 170.46304783 86.23712826 169.80304783 86.23712826 169.12304783 C85.38441341 168.74599705 85.38441341 168.74599705 84.51447201 168.36132908 C77.16199193 164.36349686 71.0486508 157.04231997 65.11212826 151.18554783 C64.53148617 150.6179575 63.95084408 150.05036716 63.35260677 149.46557713 C61.94094558 148.05688829 60.58366731 146.59411008 59.23712826 145.12304783 C59.23712826 144.46304783 59.23712826 143.80304783 59.23712826 143.12304783 C58.57712826 143.12304783 57.91712826 143.12304783 57.23712826 143.12304783 C55.29181576 141.00586033 55.29181576 141.00586033 53.11212826 138.24804783 C52.38767513 137.34312595 51.66322201 136.43820408 50.91681576 135.50586033 C49.23712826 133.12304783 49.23712826 133.12304783 49.23712826 131.12304783 C48.57712826 131.12304783 47.91712826 131.12304783 47.23712826 131.12304783 C47.23712826 130.13304783 47.23712826 129.14304783 47.23712826 128.12304783 C46.57712826 128.12304783 45.91712826 128.12304783 45.23712826 128.12304783 C42.47091654 124.99990557 40.36723892 121.69270959 38.23712826 118.12304783 C37.19860954 116.51684142 36.15674356 114.91279594 35.11212826 113.31054783 C30.50733091 106.08695452 26.34376226 98.63718931 22.23712826 91.12304783 C21.41535091 89.64384861 21.41535091 89.64384861 20.57697201 88.13476658 C16.03964124 79.58038565 13.08661796 70.50155892 10.00372982 61.35205173 C9.06543133 58.62381441 8.03100204 55.93741731 6.98712826 53.24804783 C5.10357635 48.12638965 4.01800549 42.91363107 2.95587826 37.56836033 C2.31809634 34.51116657 1.52970443 31.5618652 0.67462826 28.56054783 C-0.82335876 22.74296863 -1.43627997 16.90099734 -2.01287174 10.93554783 C-2.10512028 9.98929539 -2.19736881 9.04304295 -2.29241276 8.06811619 C-2.74017045 2.99368331 -2.74017045 2.99368331 -2.76287174 1.12304783 C-1.76287174 0.12304783 -1.76287174 0.12304783 0 0 Z " fill="#F6F6F6" transform="translate(9.762871742248535,270.8769521713257)"/>
<path d="M0 0 C0.66 0.33 1.32 0.66 2 1 C1.01 2.485 1.01 2.485 0 4 C7.92 4.33 15.84 4.66 24 5 C24 5.33 24 5.66 24 6 C14.43 6 4.86 6 -5 6 C-3 2 -3 2 0 0 Z " fill="#BEBEBE" transform="translate(368,207)"/>
<path d="M0 0 C6.93 0 13.86 0 21 0 C21 0.33 21 0.66 21 1 C19.08574219 1.07347656 19.08574219 1.07347656 17.1328125 1.1484375 C15.46351928 1.22346191 13.79424954 1.29900988 12.125 1.375 C10.86236328 1.42140625 10.86236328 1.42140625 9.57421875 1.46875 C8.36572266 1.52675781 8.36572266 1.52675781 7.1328125 1.5859375 C6.38918457 1.6173584 5.64555664 1.6487793 4.87939453 1.68115234 C2.75989026 1.85419551 2.75989026 1.85419551 1 4 C0.67 2.68 0.34 1.36 0 0 Z " fill="#C8C8C8" transform="translate(51,308)"/>
<path d="M0 0 C0.66 0.33 1.32 0.66 2 1 C0.35 2.98 -1.3 4.96 -3 7 C-4.32 6.67 -5.64 6.34 -7 6 C-4.69 4.02 -2.38 2.04 0 0 Z " fill="#B7B7B7" transform="translate(345,357)"/>
<path d="M0 0 C0.33 0.66 0.66 1.32 1 2 C-0.1875 4.5625 -0.1875 4.5625 -2 7 C-3.32 7.33 -4.64 7.66 -6 8 C-4.02 5.36 -2.04 2.72 0 0 Z " fill="#A7A7A7" transform="translate(421,375)"/>
<path d="M0 0 C0.66 0 1.32 0 2 0 C0.70700306 2.88437779 -0.65941363 4.87219421 -3 7 C-3.66 6.67 -4.32 6.34 -5 6 C-5 5.34 -5 4.68 -5 4 C-3.35 3.34 -1.7 2.68 0 2 C0 1.34 0 0.68 0 0 Z " fill="#A9A9A9" transform="translate(386,411)"/>
<path d="M0 0 C0.66 0.33 1.32 0.66 2 1 C0.73134318 3.53731364 -0.49709121 3.78646846 -3 5 C-3.66 5.66 -4.32 6.32 -5 7 C-5 6.34 -5 5.68 -5 5 C-5.66 4.67 -6.32 4.34 -7 4 C-1.7265625 0.77734375 -1.7265625 0.77734375 0 0 Z " fill="#B1B1B1" transform="translate(361,429)"/>
</svg>
